/* XPM */
static xpm_row_t const bullet_xpm[] = {
"10 11 44 1",
" 	c None",
".	c #EDEDED",
"+	c #CFCFCF",
"@	c #C3C3C3",
"#	c #878787",
"$	c #5B5B5B",
"%	c #B3B3B3",
"&	c #636363",
"*	c #222222",
"=	c #040404",
"-	c #232323",
";	c #646464",
">	c #B2B2B2",
",	c #C6C6C6",
"'	c #5A5A5A",
")	c #0B0B0B",
"!	c #000000",
"~	c #0A0A0A",
"{	c #C7C7C7",
"]	c #989898",
"^	c #282828",
"/	c #9D9D9D",
"(	c #929292",
"_	c #212121",
":	c #242424",
"<	c #939393",
"[	c #9F9F9F",
"}	c #272727",
"|	c #292929",
"1	c #A1A1A1",
"2	c #D3D3D3",
"3	c #6F6F6F",
"4	c #161616",
"5	c #707070",
"6	c #D4D4D4",
"7	c #6C6C6C",
"8	c #252525",
"9	c #191919",
"0	c #1A1A1A",
"a	c #C5C5C5",
"b	c #CDCDCD",
"c	c #949494",
"d	c #6E6E6E",
"e	c #D2D2D2",
"   .++.   ",
"  @#$$#@  ",
" %&*==-;> ",
",')!!!!~${",
"]-!!!!!!^/",
"(_!!!!!!:<",
"[}!!!!!!|1",
"234!!!!456",
" ,789087a ",
"  bc3d<b  ",
"    2e    "};
