/* XPM */
static xpm_row_t const nquatro_xpm[] = {
"52 67 3 1",
" 	c None",
".	c #EFEFEF",
"+	c #F0F0F0",
"                                                    ",
"                                                    ",
"                                                    ",
"                                                    ",
"                                                    ",
"                                                    ",
"                                                    ",
"                                                    ",
"                                                    ",
"                                                    ",
"                               ..                   ",
"                              ..                    ",
"                             .+                     ",
"                            ++.   .                 ",
"                           +++   .                  ",
"                          ++++..++                  ",
"                         +++++++..                  ",
"                        +++. ++  ++                 ",
"                       ++++..++ .++                 ",
"                      ++++++++++++                  ",
"                     .++++++++++++                  ",
"                    .+++.+++.++.++                  ",
"                    +++..++.+++..+                  ",
"                   .++.+++++++. .+                  ",
"                  .++.++..++++. .+                  ",
"                  ++. ++.+++++  ++                  ",
"                 ++. ++.+++..+  ++                  ",
"                .+. +++.+++  +  ++                  ",
"               .++ .++ ++++  +  ++                  ",
"               ++  .+ +++.+  +  ++                  ",
"              .+  .+ +++  +  +  +.                  ",
"             .+. .+ .++.  +  +  +.                  ",
"            .++ ++..++++ .++.+..+.                  ",
"           .++.+++.+++++++++++++++++++++.           ",
"          +++.++++++.   +++++++++. +++++..          ",
"         +++  +. +++     ++ .+ .+.                  ",
"         +.  +..++++.   .++.++..++                  ",
"         +. .+.++++++++++++++++++++++++.....        ",
"         ..+++++++.     .+++++.+++                  ",
"          .+. +++........+++++.+++.                 ",
"        ..++++++++++++++++++++++++++........        ",
"             ++          +. .+..++.                 ",
"             .           +. .+. ++                  ",
"                         +. .+  ++                  ",
"                         +. .+  ++                  ",
"                         +. .+. ++                  ",
"                         +.  +. ++                  ",
"                         +.  +. ++                  ",
"                         +.  +. .+                  ",
"                         +.  +. .+                  ",
"                         .   +  .+                  ",
"                         .   +  .+                  ",
"                         .   .   +                  ",
"                         .   .   +                  ",
"                         .   .   +                  ",
"                         .   .   .                  ",
"                         .       .                  ",
"                                                    ",
"                                                    ",
"                                                    ",
"                                                    ",
"                                                    ",
"                                                    ",
"                                                    ",
"                                                    ",
"                                                    ",
"                                                    "};
