/* XPM */
static xpm_row_t const Hero_xpm[] = {
"101 147 16 1",
" 	c None",
".	c #2C2723",
"+	c #BDCCCA",
"@	c #4C4845",
"#	c #809EB1",
"$	c #666665",
"%	c #933331",
"&	c #56381A",
"*	c #7D5B39",
"=	c #C0A180",
"-	c #BC9264",
";	c #C06A68",
">	c #9D4616",
",	c #8D5C15",
"'	c #D22C10",
")	c #F4300B",
"                                                                                                     ",
"                                                                                                     ",
"                                                               .+@                                   ",
"                                                               #++ @                                 ",
"                                                              . ++++#                                ",
"                                                               ++++++                                ",
"                                                                ++++++                               ",
"                                                                 ##+  .                              ",
"                                                                      @@                             ",
"                                                                       @.                            ",
"                                                                        .$                           ",
"                                                                         .$.                         ",
"                                                                          @$@                        ",
"                                                                            $$.                      ",
"                                                                            .$$.                     ",
"                                                                              @$$                    ",
"                                                               @@$@.@@$@@      $                     ",
"                                                               @@$@@@$$$@      $.                    ",
"                                                               @@$@@@$$$@      $.                    ",
"                                                               .@$@@@@$$@.     $.                    ",
"                                                              .@@@@@@@@@@@.    $.                    ",
"                                                             @@@..@...@...@    $.                    ",
"                                                             .@...@...@...@.   $.                    ",
"                                                             @@@..@...@...@.  @@@.                   ",
"                                                             .@@..@...@..@@. .@@@@@                  ",
"                                                              .@@@@@@@@@@@.  .@@.@@                  ",
"                                                               .@@@@@@@@@.....@@@@@                  ",
"                                                               @@$@@@$$$@.@@@@@@@@@                  ",
"                                                               @@$@@@$$$@.@@@@@@@@@                  ",
"                                                               @@$@@@$$$@....@@@@@@                  ",
"                                                               @.@...@@...   .@@@@@                  ",
"                                                                 .......     .@@@@@                  ",
"                                                                 @$..@$@     .@@@@@                  ",
"                                                                 @$@@$$@     .@@@.                   ",
"                                                                 @$@.$$@      .$.                    ",
"                                                                 @$..$$@       $.                    ",
"                                                                 @$@@$$@       $.                    ",
"                                                                 @$..$$@       $.                    ",
"                                                                 @$@.$$@       $.   .%$ +&&%%%&&$ @  ",
"                                                                 @$@@$$.       $.   &%@$$%%%%%&%$#@  ",
"                                                               @$$@@@$@..      $.   %%@$$%%%%%%%$$.  ",
"                                                               @$$@@@$@..      $$   %%@$$%%%%%%%$$   ",
"                                               .$@             @  #$$$$$+.     .##$$%%*$$%%%%%%%$$  @",
"                                         .*$. $ ==$            @  #$$$$$#       .@$$%%@$$%%%%%%%$$   ",
"                                     $=-*==-== ====$ .         @ #$$$$$$$           %%$#$%%%%%%%$$   ",
"                                    @ ======== ===  ==         @$$@@@$@..           %%$##%%%%%%%#+.  ",
"                                      ==-=-== ===  =-=@        @$$@@@$@..           ;;;  ;;;;;;%  @  ",
"                                    * ========== =====.    . ...$$@@@$@..           @&$  &&&&&%&$ @  ",
"                                   .======== == ====-=.........@$$@@@$@..                            ",
"                                   @========== ======*.........@$$@@@$@...$                          ",
"                               ...@==================........          ++##@                         ",
"                             .&&&&=-================*.......  >>>>>>>>>>>>>$@                        ",
"                            ..**&&*=================.......  >>>>>>>>>>>>>>&$.                       ",
"                           .&***&&&*================....... >>>>>>>>>>>>>&>>&$                       ",
"                         .&****&&&&&==============-*....... >>>>>>>>>>>>>>>>&$                       ",
"                        .******&&&&&&=============-=      $ >>>>>>>>>>>>>,,,*$                       ",
"                        @**&&&&&&&&&&&======----===*      $ >,>>>>>>>>>>,,,,*$                       ",
"                        @**&&&&&&&&&&&*-------***@        $$,,,,,,,,,,,,,,,,&$                       ",
"                       $*&**&&&&&&&&&&&*---*$.            $$*,,,,,,,,,,,,,,*@$                       ",
"                     $===&&*&&&&&&&&&&..**                #$$,,,,,,,,,,,,,,*@$                       ",
"                   $=====-&&&&&&&&&..&...                 #$$$,,,,,,,,,*,,,,@$                       ",
"                  *=======*&&&&&&&&&.....                 #@$$$,,,*,,,,**,,,@$                       ",
"               @*==========&&&&&&&&&.....    .@           #@$$$,,,@,,,,@@,,&@$                       ",
"              *===--========.&&..&&..       .$=;*@        #@$$$,,*@,,,,@@*,@@#    ..                 ",
"            @====--=======--*..&&&..@       @$.@$#        #@$$$-$@@,,,@@@*&@@#    ...                ",
"           @====--========---*.....        .$@@@$$@       #$$$$$$$@,,*@@@@@@@+@@@...                 ",
"          @====--=======------*...$  @     $ $$$$$.@@.   .$$$$$$$@@,,@$@@@@@@ @@@....                ",
"         $====---======-------= @$        .   #$$$$=--..$$ *$$$$$@*,*@@@@@@@@ $++....                ",
"        .==-=---==-=-=--------        @  .*======$# @=@@$$%= $$$$@*,*@@@@@@@@ $++ ...                ",
"       .&*==----=#########=--=         .$===========@#$$$@@@  $$$@@,*$@@@@@@@ @++...@                ",
"      $.&&*-----==############       % *-=== =========$$$@@@$$$$$@@**@@@@@@@$  ++@                   ",
"       .&.&&&*-=--=##############  %'%*=-= =============$ @$@$$$$@$$@$@@@@@$   +++                   ",
"      .&&&&&@&&&&*==###############;%.===================  $.$$$$$$$$$$$$$# =. #++.                  ",
"     ...&&&&&&&&&&.$################@=========-====-===--=    @@@@$ $$ $$  ==$ @+++@                 ",
"     @.&&.&&&&&&@###################.-== =-=*****-======== .      -=* @   -=-    ++$                 ",
"     ..&&.&&&*$####################.**=====********====---=.      === @@ =====$ .+++$                ",
"     ..&&.&&=#####################$****==**********-==-----.      ============   .+++#@              ",
"     ....&*==#++#################+&*****************=------.      =-========== @  .++++              ",
"     ..&&======-=###############=*$*****************=------@      $=========== $   .++++.            ",
"     ..&=====-=-################-.******************=------.       @==========       ++++.           ",
"     .&--=======################$*******************-------.         @*=======  $    @++++.          ",
"      &---===-=#################.********************-----=.           .*=-====        $+++.         ",
"       =---===##################&********************-----*.             *====-= $      $+++.        ",
"        =----##################.**************************.              &====--=        $+++.       ",
"        @=---=#################.**************************.              *===---==$        ++$       ",
"          =----$###############.*************************.@              =====---= @      .+++@      ",
"           $=--$###############.*************************.##$.           =====----==       @++#      ",
"            .==################.************************.#####@          ======---==.       +++@     ",
"             .#################.************************@######$        $-=====----==        ++$     ",
"              &=###############.***********************.+#######$@      $-======---==@       +++     ",
"               $##$$$#$$$######.***********************&=########$      *-=====-----==       $++@    ",
"               @$$@@@@$$$$$$###.**********************.-=#########$     $========---===       ++$    ",
"              .%%%%%%&,&&*$$###.&********************@$==##########$@$  .**======----**&.    @++$    ",
"           @&%%%%%%%%*&&&&&&@$$@.********************.################=$= =&.&&&&&&&&&&&&.    ++     ",
"          &%%%;;;;;;******&&%%%@.&******************.############=-=+###+  ==*.&&&&&&&***.$   +++    ",
"        $%%%;;;;;;;;*,****&;;%%%&.&****************@@#############=-  =========&&&&&&&&***.   +++    ",
"       $%%%%;;;;;;;,,*,**,&;;;;;%..***************@.###############---==========&&&&&&&&**&   +++    ",
"       %%%%%;;;;;;;,,,,,*&;;;;;;;;..$************..###############=----=======-==&&&&&&&**&   +++    ",
"      %%%%%%%;;;;;*,,,*,*&;;$;;;;;;..$********$@.@###############-================&&&&&&**&   +++    ",
"  $@ @%%%%%%%%%%%%,,,,,,&;;;$@;;;;;;&...$$$$@..@$$$$###############===-============&&&&***.   ++     ",
"  $$$%%%%%%%%%%%%%,,,,,,&%%%;;;;;;;;;;;*&&@&%%%%%$$$$$##############================&&&***.   +++    ",
"  $*.%'%%%%%%%%%%>,,,,,*%%%%%%;;;;;;;;;;;;;;;;%%%%%*$$$$########$##=============-====&&**&@  @++$    ",
" .$&%')%%%%%%%%%%,,,,,,&%%%%%%%%%;;;;;;;;;;;;;;;%%%*,&@$$$#####---============---====****.    ++$    ",
" @$&%))%%%%%%%%%%,,,,,*&%%*$%%%%%%%;;;;;;;;;;;;;;;%**&&&&$$###$-=============---======&*.    $++@    ",
"@$$%)))%%%%%%%%%,,,,**&%%%*@%%%%%%%%%%;;;;;;;;;;;;;****&*%%$###--===========---========&@     ++     ",
"@$&))))%%%%%%%%%,*,,**&%%%%%%%%%%%%%%%%%;;;;;;;$$;;******%%%$#=--======-====--=========.    $+++     ",
".@@')))%%%%%%%%%****,*&%%%%%%%%%%%%%%%%%%%%;;;;%.;;****,*%%%%;---=====--===---====-= $       ++#     ",
" $ )))'%%%'%%%%******&%%%%%%%%%%%%%%%%%%%%%%%%;;;;**,,,**%%%%%%--====---==---=-==== @        ++$     ",
"  &)))%%%%)'%%%&*****&)%@$%%%%%%%%%%%%%%%%%%%%%%%;*,,,,**%%%%%%;-------==----==== $$        +++      ",
"  &)))%%%%)'%%%&&&&&&>'%&@%%%%%%%%%%%%%%%%%%%%%%%%*,,,,,%%%%%%%%------------===             +++      ",
"  &)))%%%')'%%&&&&&&&'%%%%%%%%%%%%%%%%%%%%%%%%$%%;*,,,,,%%%%%%%%%----------=  @             ++$      ",
"  &))))%'))'%%&&&&&&&)%%%%%%%%%%%%%%%%%%%%%%%%@%%**,,,,,%%%%%%%%%---------  @@             #++@      ",
"   ))))))))'%%&&&&&&>'%%%%%%%%%%%%%%%%%%%%%%%%%%%***,,,>%%%%%%%%%>--=   =@@                +++       ",
"   ))))))))'%%&&&&&&''*$%%%%%%%%%%%%%%%%%%%%%%%%%*,*,,,>%%%%%%%%%%$.@$                    $++@       ",
"   ')))))))'%&&&&&&&)%%&%%%%%%%%%%%%%%%%%%%%%%%%**,****%%%%%%%%%%%@                       +++        ",
"   %))))))))%&&&&&&&)%%%%%%%'%%%%%%%%%%%%%%%%%%%**,***,%%%%%%%%%%%                       #++@        ",
"    ))))))))'&&&&&&&)%%%%%%%)%%%%%%%%%>%%%%%$*%%******%%%%%%%%%%%%@                     $+++         ",
"    %)))))))'&&&&&&')'%%%%'))'%%%%%%%''%%%%%&%%*******%%%%%%%%%%%%@                    @+++.         ",
"     )))''')>&&&&&&))>'))))))'%%%%%%')%%%%%%%%%*****,*%%%%%%%%%%%%&                   .+++@          ",
"      )'''')&&&&&&&))$@))))))%%%%%%'))%%%%%''%**&***,%%%%%%%%%%%%%&                  .+++#           ",
"      %)''''&&&&&&&))>%))))))%%%%%%)))%%%%%')%**&&&&&%%%%%%%%%%%%%@                @@+++$@           ",
"       '))''&&&&&&>)))))))))'%%%%%')))'%%%$*)>*&&&&&&%%%%%%%%%%%%%                @++++$$            ",
"        >))'&&&&&&''')))))))'%%%%%'))))%%%%>)>*&&&&&%%%%%%%%%%%%%%@ @$           $++++$              ",
"         %)>&&&&&&'))''')))))%%%%')))))%%%))'*&&&&&&%%%%%%%%%%%%%%  $        @$++++++.               ",
"          .&&&&&&&''$%''''))))'''))))))%')))>*&&&&&&%>'%%%%%%%%%%&  $.$$$@$$+++++++@                 ",
"             .&&&&''&%''''''')))))))))))*)))*&&&&&&%%>)%%%%%')'%%&.$$++++++++++++.$                  ",
"               ..>)))''''''''''))))))))'$>)>*&&&&&&%%'))%%%>)'%%%@ $$++++++++$$                      ",
"                 @%))))'''''''''''')))))>''*&&&&&&%%%)))%%%))%%%@ .$@$$$@. @                         ",
"                      '))'''''''''''''))))>*&&&&&&%%'))'%%'))%%%  @@                                 ",
"                       . '))')''''''''''''*&&&&&&%%')))>%%)))%%.  ..                                 ",
"                           >'))''''''>*''>&&&&&&&>')'''%%')))'&                                      ",
"                             @ '))''''&>'*&&&&&&>''''''''')))>                                       ",
"                               $. )))'''>&&&&&&&)'''''''''))'                                        ",
"                                   @>))'*&&&&&&>'''''''''))%                                         ",
"                                     $ &.&&&&&&''''''''')'.                                          ",
"                                         @&&&&>))))))))'.                                            ",
"                                          ...&)))))))'&.                                             ",
"                                          @............                                              ",
"                                           ...........@                                              ",
"                                           .......... $                                              ",
"                                            #.......@+                                               ",
"                                           @+$...... +@                                              ",
"                                             +   .% ++                                               ",
"                                            @++ '' ++.                                               ",
"                                              ++++++.                                                ",
"                                             .+++++$                                                 ",
"                                               $$@.                                                  "};
