/* XPM */
static xpm_row_t const nnove_xpm[] = {
  
  
"40 67 3 1",
" 	c None",
".	c #F0F0F0",
"+	c #EFEFEF",
"                                        ",
"                                        ",
"                                        ",
"                                        ",
"                                        ",
"                                        ",
"                                        ",
"                                        ",
"                           .+           ",
"                         .+.+           ",
"                        ......+         ",
"                    . ........          ",
"                   +.........  ++       ",
"                   .... +...+.++        ",
"                 ....   .....+.         ",
"                +....+.......           ",
"               ... .......+.+           ",
"             .... +......+ +            ",
"           ...+  ........  +            ",
"         +.... +.......++  +            ",
"         +.......++..+  +  +            ",
"        +..+....+....   +               ",
"        +..+.........   + +             ",
"       + +...+.......   + +             ",
"       +.....+...+...   + +             ",
"        +.......  +..   + ++            ",
"          .......+ ...++. ..            ",
"           .....+....+... ..            ",
"             ....++..  ..+..            ",
"              +..++..+ +....            ",
"                ............            ",
"                 +.......+..+           ",
"                   ........  ++         ",
"                   ........+            ",
"                   ...... ..+           ",
"                   .++...+...+          ",
"                   .  .....  +          ",
"                   .   .++.+            ",
"                   .   .  ...           ",
"                   .   .  +  +          ",
"                   .   .  +             ",
"                   .   .  +             ",
"                   .   .  +             ",
"                   .   .  +             ",
"                   .   .  +             ",
"                   .   . ++             ",
"                   .   . ++             ",
"                   .   .  +             ",
"                   .   .  +             ",
"                   +   .  +             ",
"                   +   .  .             ",
"                   +   .  .             ",
"                       .  .             ",
"                       .  .             ",
"                       .  +             ",
"                       .  +             ",
"                       +  +             ",
"                       +                ",
"                                        ",
"                                        ",
"                                        ",
"                                        ",
"                                        ",
"                                        ",
"                                        ",
"                                        ",
"                                        "};
