/* XPM */
static xpm_row_t const one_xpm[] = {
"22 60 3 1",
" 	c None",
".	c #EFEFEF",
"+	c #F0F0F0",
"                      ",
"                      ",
"                      ",
"                      ",
"                      ",
"                      ",
"                      ",
"         .            ",
"         .            ",
"         .     .      ",
"        .   .  .      ",
"        .   .  .      ",
"        .   .  .      ",
"        +   .  .      ",
"        +  +.  .      ",
"        +  +.  .      ",
"       .+  +   .      ",
"       ++  +  +.      ",
"       ++  +  +       ",
"       ++ .+  +       ",
"       ++ .+  +       ",
"       ++ ++  +       ",
"       ++ ++  +       ",
"       ++ ++  +       ",
"       +. ++ ..       ",
"       +. ++ .+       ",
"       +. ++ .+       ",
"       +  ++ ++       ",
"       +  ++ ++       ",
"       +  ++ ++       ",
"       +  ++ +        ",
"      ++  +  +        ",
"      ++  +  +        ",
"      ++  +  +        ",
"      ++  +  +        ",
"      ++  +  +        ",
"      ++  +  +        ",
"      ++  +  +        ",
"      ++  +  +        ",
"      ++  +  +        ",
"      +.  +  +        ",
"      +. .+  +        ",
"      +. ++  +        ",
"      +. ++  +        ",
"      +. ++ .+        ",
"      +  +. ++        ",
"      +  +. ++        ",
"      +  +. ++        ",
"      +  +. ++        ",
"      +  +. ++        ",
"            .+        ",
"             +        ",
"             .        ",
"                      ",
"                      ",
"                      ",
"                      ",
"                      ",
"                      ",
"                      "};
