/* XPM */
static xpm_row_t const points_xpm[] = {
"49 68 3 1",
" 	c None",
".	c #EFEFEF",
"+	c #F0F0F0",
"                                                 ",
"                                                 ",
"                                                 ",
"                                                 ",
"                                                 ",
"                                                 ",
"                                                 ",
"                                                 ",
"                                                 ",
"                                                 ",
"                                                 ",
"                                                 ",
"                                                 ",
"                                                 ",
"                                                 ",
"                                                 ",
"                                                 ",
"                                                 ",
"                       ..                        ",
"                       ..                        ",
"                   .........                     ",
"                 ...........                     ",
"                 ....+.  ..                      ",
"                  ..++........                   ",
"                  ..+........                    ",
"                   .+..+.....                    ",
"                  ....+++....                    ",
"                  ...++.++....                   ",
"                    ..++++.  .                   ",
"                    ...+...                      ",
"                   ........                      ",
"                      ..                         ",
"                      .                          ",
"                                                 ",
"                                                 ",
"                           .                     ",
"                         ....                    ",
"                         .+....                  ",
"                      ........                   ",
"                       .+...+.                   ",
"                      ..+......                  ",
"                    ...........                  ",
"                    .....+.....                  ",
"                    ...........                  ",
"                    .........                    ",
"                    ..... ...                    ",
"                      ......                     ",
"                      .....                      ",
"                       ...                       ",
"                        .                        ",
"                                                 ",
"                                                 ",
"                                                 ",
"                                                 ",
"                                                 ",
"                                                 ",
"                                                 ",
"                                                 ",
"                                                 ",
"                                                 ",
"                                                 ",
"                                                 ",
"                                                 ",
"                                                 ",
"                                                 ",
"                                                 ",
"                                                 ",
"                                                 "};
