/* XPM */
static xpm_row_t const pointer_xpm[] = {
"22 22 69 1",
" 	g None",
".	g #A5A5A5",
"+	g #A8A8A8",
"@	g #525252",
"#	g #656565",
"$	g #3E3E3E",
"%	g #050505",
"&	g #000000",
"*	g #585858",
"=	g #565656",
"-	g #555555",
";	g #939393",
">	g #3F3F3F",
",	g #909090",
"'	g #989898",
")	g #535353",
"!	g #B6B6B6",
"~	g #2E2E2E",
"{	g #737373",
"]	g #2D2D2D",
"^	g #BABABA",
"/	g #303030",
"(	g #747474",
"_	g #6F6F6F",
":	g #5A5A5A",
"<	g #343434",
"[	g #7B7B7B",
"}	g #595959",
"|	g #5E5E5E",
"1	g #878787",
"2	g #8E8E8E",
"3	g #969696",
"4	g #7E7E7E",
"5	g #666666",
"6	g #686868",
"7	g #1B1B1B",
"8	g #858585",
"9	g #5C5C5C",
"0	g #7A7A7A",
"a	g #777777",
"b	g #EFEFEF",
"c	g #222222",
"d	g #030303",
"e	g #848484",
"f	g #0B0B0B",
"g	g #101010",
"h	g #9B9B9B",
"i	g #929292",
"j	g #6D6D6D",
"k	g #949494",
"l	g #767676",
"m	g #6A6A6A",
"n	g #919191",
"o	g #8A8A8A",
"p	g #6B6B6B",
"q	g #0F0F0F",
"r	g #5B5B5B",
"s	g #5F5F5F",
"t	g #8D8D8D",
"u	g #838383",
"v	g #636363",
"w	g #7D7D7D",
"x	g #2F2F2F",
"y	g #6E6E6E",
"z	g #B5B5B5",
"A	g #393939",
"B	g #545454",
"C	g #404040",
"D	g #0C0C0C",
"         .++.         ",
"      @#$%&&%$*=      ",
"     -;>  ,'  $,)     ",
"   !~$          {]^   ",
"   /(            _~   ",
"  :<              [}  ",
" |1       23       45 ",
" 67                89 ",
" $        0a       bc ",
" d       8  e       f ",
" gh   i 0    j i   k& ",
" gh   i l    m n   k& ",
" d       e  o       % ",
" $        _p        $ ",
" :7                qr ",
" s1       t3       uv ",
"  =w              ~|  ",
"   x{            y~   ",
"   z~$          A]^   ",
"     BkC  n'  $n=     ",
"      B*$D&&D$#B      ",
"                      "};
