/* XPM */
static xpm_row_t const score_xpm[] = {
"227 83 3 1",
" 	c None",
".	c #EFEFEF",
"+	c #F0F0F0",
"                                                                                                                                                                                                                                   ",
"                                                                                                                                                                                                                                   ",
"                                                                                                                                                                                                                                   ",
"                                                                                                                                                                                                                                   ",
"                                                                                                                                                                                                                                   ",
"                                                                                                                                                                                                                                   ",
"                                                                                                                                                                                                                                   ",
"                                                                                                                                                                                                                                   ",
"                                                                                                                                                                                                                                   ",
"                                                                                                                                                                                                                                   ",
"                                                                                                                                                                                                                                   ",
"                                                                                                                                                                                                                                   ",
"                                                                                                                                                                                                                                   ",
"                                                                                                                                                                                                                                   ",
"                                                                                                                                                                                                                                   ",
"                                                                                                                                                                                                                                   ",
"                                                                                                                                                                                                ................                   ",
"                              .. .....                                ..                                      .    ..                          .                                         .........++++...........                  ",
"                             .....+.....                             .....                              ...  ...   ..                         ........                               .....................                         ",
"                            ....++++..+..                          ..+++....                            .+.  ...  ....                       ........ ....                           ..............                                ",
"                           .....+++++++...                         ..+++....                            .+.......... .                      ..+......  ...                           ..+...+....................                   ",
"                           .. ..+++++++....                        ..++......                          .++..........  .                      ..+...........                          ..+.......................                    ",
"                          ..  ....++++++....                       ..........                          ....... .....                          .++...........                          .............                                ",
"                         ..  .......++..+....                     .........  .                        ......+......                           .+..+....+.....                       ...+...+............                           ",
"                        ..  ..................                   ..   ......  .                      ...............                          ....++...++.. ...                     ..............                                 ",
"                       ..  .......   ....... .                  ..    ...  .  ..                     ... .....+.....    .                    .+. ..++..++... ...                      ..  ..   ..                                  ",
"                      ...........     .......                  ...    ....     ..                   ... ...  .+.  ...  ..                    .+.  ....++.........                      .       .                                   ",
"                     ...........       ......                  ..               ..                 ...  ..   .++.  ..  ...                   .+.  .. ..+.. ........                    .       .                                   ",
"                    ... .......          .....                ..                 ..              ....  ...  ...... ... ....                  .+.  ..  ..+.. .........                  .       .                                   ",
"                    ..........            ..                 ...                  .              .+..  ..  ... ...  ..  .+.  .               ... ...   .++..  ....++..                ..  .    .                                   ",
"                   .. .......              .                ...                    .           ...+.  ...  ..   ...  ..  ....                ..  ...   .........+++.....              ..  .    .                                   ",
"                  ... .....+.                              ...                                 ...+.....  ..    .... ..  .++.                ..  ..    .  .....+..+.....              ..  .   ..                                   ",
"                 .... .......                              ..                                  .+......   ..     ...  .. .++.                ..  ..    .   .++++..++......            ..  .   ..                                   ",
"                 ........+....                            ...                                  .+.  .+.  ..       ... ........               ..  ..   ... .....+...........           ..  .   ..                                   ",
"                   ..+.........                          ...                                ....+.  ... ...       .... .+.......             ..  ..   ......  .+++.........           ..  .   ..                                   ",
"                    .+..........                        .+..                                 .+...........         .+...+.  ....             ..  ..   .+..   ...........              ...... ...                                   ",
"                    ...+.........                      ..+....                               .+. ..+.....           .+....   .+.  ..         ..  ..   .+.. ..........                .........+.....                               ",
"                      .++.........                    ...++....                             .+.   ... ...           .+.. ..........          .. .... .++...........                  .........+.....                               ",
"                       .++.........                  ..+++++..                              .+.  .+.  ...           ....  .... .++.          .  .++...+++++.......                    ...... ....                                  ",
"                       ..+.. ... ...                 .++++++..                              .............           ....  ...  ....          .  .+++..+++++.....                     .........+........                            ",
"                        ..+.. ... ..                 .++++++.                              ..............           ..... .... ....          ...+++++.+++++++..                      .........+........                            ",
"                         ..+.. ... ..                ..++++...                             .   ...  .+....         ..   ... .......          ...++++++++..++..                        ...... ...                                   ",
"                           .+.  ... ..                ..++....                                 ..   .+. ..        ...   ...  .+.   .        .....+++++++++++.                        ..............                                ",
"                            ...  ..  ..                .++.. ..                                ..   .... ..       ..    ........            .....++..++++.++..                       .++.............                              ",
"                             ...  ..  ...               ..... .                                ......... ..      ...   .........           ......+....++......                        ..........                                   ",
"                              ...  .. ....               ....  .                                ....  ..  ..    ...   ..   ...             .....++....++.......                       ..  ..  .                                    ",
"                               ...   ......               .... ..                               ..+.  ... ..    ..    ..   ..               .+..++...+++++......                      ..  ..  .                                    ",
"                                ...  ......  .            ....  .                               .++.   ..  ..  ...   ..   ...              ......+....+++.......                      ..  ..  .                                    ",
"                                 .............             ....  .                              .....  ...  .....   ..   ..                .+......  .+...... ...                     ..  ..  .                                    ",
"                                  ......+.....              ....  .                               ...   ..  ..+..   ..   ..                .....+.   ... ..... ...                    ..  ..                                       ",
"                      .   ..       .++..+..+..              ..... ..         ..                    ...  ..  ..+.   ..   ..                 .......   ..   .. .  ..                    ..  ..                                       ",
"                       .   ..      .+++...+...               ....  ..      ...                      ..   .. .++.  ...  ..                  ...  ..   ..   ..     ..                   ..  ..                                       ",
"                       ...  ..    ...++.......                ....  .     .....                     ..   ....++.  ..   ..                  ...  ..   ..    ..     ..                  ..  ..                                       ",
"                      .....  ... .....+.....                  .....  .  .........                    ..   .++++....   ..                   ..   ..   ..     .     ..                  ..  .....                                    ",
"                      ......  ..............                   ....  ...........                     ..   .++......  ..                     .   ..   ..      .     ..                ......+....   ...                             ",
"                       .....   ..+.... ...                      ......+++......                       ..  .+.. .+.   ..                     .   ..   ..      .      ..              .......+...........                            ",
"                        ....   ......  ...                      ......++++....                        .. ..+....+.  ..                      .   ..   ..       .   .  .               ......+....                                   ",
"                         ...............                         ..+++++++..                           ...............                      .   ..   ..               .            ........+.++............                        ",
"                          .....++......                          .++++++++.                            ...  .+.......                       .   ..    .               ..         .....++++++++++...............                    ",
"                           ...++++...+.                         ..+++++++.                             ...  ...  ....                       .   ..    .                .           ....+...+.............                          ",
"                            .+++++......                       ..+++++++..                             ..    ..  ....                       .   ..    .                               ..................                           ",
"                             ...+....                          ..........                             ...   ..   ....                                                                 .........................                    ",
"                             . ......                           .   .                                 .            .                                                                  ........................                     ",
"                               .....                                                                                                                                                      .   .                                    ",
"                                 ..                                                                                                                                                                                                ",
"                                                                                                                                                                                                                                   ",
"                                                                                                                                                                                                                                   ",
"                                                                                                                                                                                                                                   ",
"                                                                                                                                                                                                                                   ",
"                                                                                                                                                                                                                                   ",
"                                                                                                                                                                                                                                   ",
"                                                                                                                                                                                                                                   ",
"                                                                                                                                                                                                                                   ",
"                                                                                                                                                                                                                                   ",
"                                                                                                                                                                                                                                   ",
"                                                                                                                                                                                                                                   ",
"                                                                                                                                                                                                                                   ",
"                                                                                                                                                                                                                                   ",
"                                                                                                                                                                                                                                   ",
"                                                                                                                                                                                                                                   ",
"                                                                                                                                                                                                                                   ",
"                                                                                                                                                                                                                                   ",
"                                                                                                                                                                                                                                   "};
