/* XPM */
static xpm_row_t const two_xpm[] = {
"50 63 3 1",
" 	c None",
".	c #EFEFEF",
"+	c #F0F0F0",
"                                                  ",
"                                                  ",
"                                                  ",
"                                                  ",
"                                                  ",
"                                                  ",
"                                                  ",
"                                                  ",
"                                                  ",
"                                                  ",
"                                                  ",
"                         .                        ",
"                  .   .....                       ",
"                   ...++....                      ",
"                   .+++++....                     ",
"                   .++++++...                     ",
"                   .++..++. ..                    ",
"                  ...++.+++ ...                   ",
"                 ......+..+. ..                   ",
"                 .... .+. .+. ..                  ",
"                .... ....  +.  ..                 ",
"                . .. .  .. .+. ..                 ",
"               .. . ..   .. .+. ..                ",
"              ..    .     .. .+  ..               ",
"              .    ..     ..  ...+.               ",
"             ..   ..       +. .......             ",
"             .    .         +. .+..+.             ",
"                            ......++..            ",
"                             .+.++....            ",
"                             .++.+.++.            ",
"                            ....+..+..            ",
"                            ....+ ..              ",
"                           ..... ...              ",
"                          .....  ..               ",
"                          ..... ..                ",
"                         .....  .                 ",
"                        .....  ..                 ",
"                        ..... ..                  ",
"                       .. .. ..                   ",
"                      .. ..  ..                   ",
"                      . ... ..                    ",
"                     .. .. ..                     ",
"                    .. ....+.                     ",
"                   ....+..++. ....                ",
"                ...++.++++++....                  ",
"             .....+..++++++..                     ",
"                 .+..++++++.......                ",
"                .++.+..+++..                      ",
"             ....++++..++.........                ",
"             ....++++....                         ",
"            .....     .                           ",
"                                                  ",
"                                                  ",
"                                                  ",
"                                                  ",
"                                                  ",
"                                                  ",
"                                                  ",
"                                                  ",
"                                                  ",
"                                                  ",
"                                                  ",
"                                                  "};
