/* XPM */
static xpm_row_t const bullet_xpm[] = {
"14 16 59 1",
" 	c #F8F8F8",
".	c #F7F7F7",
"+	c #F6F6F6",
"@	c #FCFCFC",
"#	c #FFFFFF",
"$	c #FAFAFA",
"%	c #F5F5F5",
"&	c #E3E3E3",
"*	c #CFCFCF",
"=	c #FDFDFD",
"-	c #EEEEEE",
";	c #C3C3C3",
">	c #878787",
",	c #5B5B5B",
"'	c #EDEDED",
")	c #FBFBFB",
"!	c #F9F9F9",
"~	c #FEFEFE",
"{	c #B3B3B3",
"]	c #636363",
"^	c #222222",
"/	c #040404",
"(	c #232323",
"_	c #646464",
":	c #B2B2B2",
"<	c #ECECEC",
"[	c #C6C6C6",
"}	c #5A5A5A",
"|	c #0B0B0B",
"1	c #000000",
"2	c #0A0A0A",
"3	c #C7C7C7",
"4	c #989898",
"5	c #282828",
"6	c #9D9D9D",
"7	c #929292",
"8	c #212121",
"9	c #242424",
"0	c #939393",
"a	c #9F9F9F",
"b	c #272727",
"c	c #292929",
"d	c #A1A1A1",
"e	c #D3D3D3",
"f	c #6F6F6F",
"g	c #161616",
"h	c #707070",
"i	c #D4D4D4",
"j	c #6C6C6C",
"k	c #252525",
"l	c #191919",
"m	c #1A1A1A",
"n	c #C5C5C5",
"o	c #CDCDCD",
"p	c #949494",
"q	c #6E6E6E",
"r	c #F2F2F2",
"s	c #D2D2D2",
"t	c #F1F1F1",
" .   ....   . ",
".....+..+.....",
" .+ @####@ +..",
" +$@%&**&+=$+.",
". @-;>,,>;')!.",
".~'{]^//(_:<#.",
"!#[}|11112,3# ",
"!#4(11111156# ",
"$#7811111190= ",
"$#ab111111cd#!",
" #efg1111ghi#.",
".)![jklmkjn!).",
"..#+opfq0o+#+.",
"...@#rest#= ..",
"....!=##=!.. .",
" .   .  .   . "};
