/* XPM */
static xpm_row_t const pointer_xpm[] = {
"35 35 153 2",
"  	g #FFFFFF",
". 	g #FDFDFD",
"+ 	g #EEEEEE",
"@ 	g #FBFBFB",
"# 	g #E6E6E6",
"$ 	g #C6C6C6",
"% 	g #C0C0C0",
"& 	g #B8B8B8",
"* 	g #E7E7E7",
"= 	g #EFEFEF",
"- 	g #EDEDED",
"; 	g #F4F4F4",
"> 	g #DADADA",
", 	g #838383",
"' 	g #252525",
") 	g #141414",
"! 	g #1C1C1C",
"~ 	g #2C2C2C",
"{ 	g #363636",
"] 	g #1B1B1B",
"^ 	g #272727",
"/ 	g #848484",
"( 	g #DCDCDC",
"_ 	g #F1F1F1",
": 	g #FAFAFA",
"< 	g #FEFEFE",
"[ 	g #F0F0F0",
"} 	g #CFCFCF",
"| 	g #1E1E1E",
"1 	g #191919",
"2 	g #797979",
"3 	g #414141",
"4 	g #070707",
"5 	g #121212",
"6 	g #161616",
"7 	g #000000",
"8 	g #171717",
"9 	g #111111",
"0 	g #181818",
"a 	g #222222",
"b 	g #D1D1D1",
"c 	g #F9F9F9",
"d 	g #FCFCFC",
"e 	g #F2F2F2",
"f 	g #3F3F3F",
"g 	g #313131",
"h 	g #5B5B5B",
"i 	g #7C7C7C",
"j 	g #F5F5F5",
"k 	g #999999",
"l 	g #A0A0A0",
"m 	g #7A7A7A",
"n 	g #5C5C5C",
"o 	g #434343",
"p 	g #F3F3F3",
"q 	g #CECECE",
"r 	g #0A0A0A",
"s 	g #EBEBEB",
"t 	g #F8F8F8",
"u 	g #979797",
"v 	g #010101",
"w 	g #EAEAEA",
"x 	g #BCBCBC",
"y 	g #060606",
"z 	g #0C0C0C",
"A 	g #2B2B2B",
"B 	g #424242",
"C 	g #E8E8E8",
"D 	g #F6F6F6",
"E 	g #3D3D3D",
"F 	g #C1C1C1",
"G 	g #D2D2D2",
"H 	g #323232",
"I 	g #787878",
"J 	g #F7F7F7",
"K 	g #BFBFBF",
"L 	g #C4C4C4",
"M 	g #737373",
"N 	g #333333",
"O 	g #D5D5D5",
"P 	g #767676",
"Q 	g #ECECEC",
"R 	g #717171",
"S 	g #0E0E0E",
"T 	g #4E4E4E",
"U 	g #393939",
"V 	g #E9E9E9",
"W 	g #343434",
"X 	g #555555",
"Y 	g #D6D6D6",
"Z 	g #050505",
"` 	g #E5E5E5",
" .	g #E4E4E4",
"..	g #E3E3E3",
"+.	g #D8D8D8",
"@.	g #AEAEAE",
"#.	g #9B9B9B",
"$.	g #A3A3A3",
"%.	g #A7A7A7",
"&.	g #3C3C3C",
"*.	g #E2E2E2",
"=.	g #9C9C9C",
"-.	g #5F5F5F",
";.	g #575757",
">.	g #A2A2A2",
",.	g #444444",
"'.	g #808080",
").	g #3E3E3E",
"!.	g #4B4B4B",
"~.	g #030303",
"{.	g #D0D0D0",
"].	g #D7D7D7",
"^.	g #020202",
"/.	g #1A1A1A",
"(.	g #D9D9D9",
"_.	g #707070",
":.	g #0B0B0B",
"<.	g #DDDDDD",
"[.	g #292929",
"}.	g #C2C2C2",
"|.	g #9F9F9F",
"1.	g #DFDFDF",
"2.	g #747474",
"3.	g #9D9D9D",
"4.	g #090909",
"5.	g #282828",
"6.	g #303030",
"7.	g #D3D3D3",
"8.	g #7E7E7E",
"9.	g #727272",
"0.	g #9E9E9E",
"a.	g #757575",
"b.	g #C7C7C7",
"c.	g #777777",
"d.	g #7F7F7F",
"e.	g #BBBBBB",
"f.	g #4A4A4A",
"g.	g #585858",
"h.	g #AFAFAF",
"i.	g #9A9A9A",
"j.	g #3B3B3B",
"k.	g #565656",
"l.	g #0D0D0D",
"m.	g #C5C5C5",
"n.	g #989898",
"o.	g #BDBDBD",
"p.	g #7D7D7D",
"q.	g #1F1F1F",
"r.	g #DBDBDB",
"s.	g #353535",
"t.	g #131313",
"u.	g #858585",
"v.	g #B9B9B9",
"    . + + @     + + +       # $ % & % $ *       = + -     @ + + .     ",
"    . + + @     + + ; > , ' ) ! ~ { ~ ] ) ^ / ( ; + -     @ + + .     ",
". . @ _ _ : . < [ } | 1 2 3 4 5 6 7 8 9 4 3 2 0 a b = < . c _ _ d . . ",
"+ + _     e + + f g h 7 i j     k 7 l     ; m 7 n g o [ + p     [ + + ",
"+ + _     e q r m 4 % s = t     u v l     t = w x y 2 z b e     [ + + ",
"@ @ : e e x A B 3 C p @ @ D e e t v c e e D @ @ ; * E B ~ F e e : @ @ ",
"    . + G ~ H I J + +     D + = K v L = + j     = + J M N ~ O + .     ",
"    < [ z o P   - + +     j + - s v - - + j     + + Q   R o S [ <     ",
"+ + [ T 2 U J Q       - + t     * 7 V     c + -       - J W 2 X [ + + ",
"+ + Y g Z ` + +       + + t      .v #     t + +       - + ..Z g +.+ + ",
"+ p W h @.; + +       + + t     #.v $.    t + +       - + ; %.h &.p + ",
"  *.8 7 C @     - + +     D + - : v d - + j     = + -     @ * 7 8 `   ",
"  =.m -.= @     + + +     D + + : v @ + + j     = + -     @ [ ;.m >.  ",
"< ,.f * c D D j t t t D D J c c , v '.j c J D D t t c j D D c ..).!.. ",
"; 8 ~.    e + +       + + c {.R } v ].P $ c + +       - + p   < ^./.D ",
"(.0 z     e = -       - + c _.  : v @   I [ + -       - = p     :.0 <.",
"Y [.r =.=.c }.+ * ` |.@ @ , G : ; v D : 1.2.: @ |.` * Q }.c #.3.4.5.> ",
"} H 7 7 ^.v v v v v ^.v v v v v v v v v v v v v v v v v v v 7 7 7 6.7.",
"Y [.r =.=.c F - C # |.@ @ 8.Y : j v D : *.9.@ @ 0.` C s }.c #.=.4.5.> ",
"+.1 z     e = -       - + j a.  : v @   '.w + +       - = p     :.0 <.",
"; 8 ^.    e + +       + + c b.c.( v  .d.e.: + +       - + p     ^./.D ",
". ,.f * t D j j c t t j j J t _ P ^.M w : J j j t t t j j D t ..f f.. ",
"  =.2 -.= @     + + +     D + + : v @ + + j     = + -     @ [ g.m $.  ",
"  ..8 7 C @     - + +     D + - @ v d + + j     = + -     @ C 7 6 `   ",
"= p N h h.; = +       = = t     i.v $.    t = = <     + = ; %.n j.; = ",
"+ + Y 6.Z ` + +       + + t      .v #     t + +       - + ..Z g +.+ + ",
"- - [ T 2 U J Q       - - c     * v V     t - -       Q J W m k.= - - ",
"    < [ l.B a.  - - -     j - - s v - - - j     + - Q   _.o S [ <     ",
"    . + b ~ N I J + +     D + = K ^.m.= + j     = + t 9.N ~ O + .     ",
"@ @ c p e e.~ B 3 C p @ @ D p p c v c p p D @ @ ; * E B ~ F p p : @ @ ",
"+ + _     e q r 2 4 F s = c     n.v |.    t = w o.4 m :.b p     [ + + ",
"+ + _     e + + f g h v p.;     k 7 l     ; m 7 n 6.,.= + p     [ + + ",
". . d [ [ : . < [ {.q.0 2 3 4 5 8 7 0 5 4 3 2 0 a b = < . : [ [ d . . ",
"    . + + @     + + p r., ' ) ] ~ s.~ ] t.^ u.( ; + -     @ + + .     ",
"    . + + @     + + +       ` $ % v.K b.#       = + -     @ + + .     "};
